<?xml version="1.0" encoding="UTF-8"?>
<svg id="Layer_1" data-name="Layer 1" xmlns="http://www.w3.org/2000/svg" viewBox="0 0 549 549">
  <path d="M67.76,503.79h-6.68c-8.54-2.5-13.36-7.28-15.87-15.87v-6.68l23.62-92.9c3.9-12.31,10.04-23.63,18.16-33.63l233.25-232.6.98.72,105.24,106.96-232.22,232.2c-10.08,8.18-21.23,14.24-33.61,18.17l-92.87,23.62Z"/>
  <path d="M435.17,45.21c3.89,1.3,8.06,1.52,12.05,2.57,23.23,6.13,42.93,23.78,51.44,46.28,2.43,6.43,3.48,13,4.99,19.65-.33,4.87.45,10.24,0,15.04-.54,5.8-3.12,14.69-5.22,20.25-8.22,21.83-27.57,34.94-42.77,51.63l-1.58.72-106.52-106.55c-.2-1.01.69-1.37,1.16-2,6.17-8.03,26.64-27.64,34.91-33.57,9.77-7.01,24.47-12.89,36.51-14.02h15.03Z"/>
</svg>