<?xml version="1.0" encoding="UTF-8"?>
<svg id="Layer_1" data-name="Layer 1" xmlns="http://www.w3.org/2000/svg" viewBox="0 0 771 767">
  <defs>
    <style>
      .cls-1 {
        fill: #e0e0e0;
      }

      .cls-2 {
        fill: #dfdfdf;
      }

      .cls-3 {
        fill: #a9a9a9;
      }

      .cls-4 {
        fill: #e3e3e3;
      }

      .cls-5 {
        fill: #e6e6e6;
      }

      .cls-6 {
        fill: #e2e2e2;
      }

      .cls-7 {
        fill: #e4e4e4;
      }

      .cls-8 {
        fill: #c1c1c1;
      }

      .cls-9 {
        fill: #e5e5e5;
      }

      .cls-10 {
        fill: #ccc;
      }

      .cls-11 {
        fill: #dedede;
      }

      .cls-12 {
        fill: #c6c6c6;
      }

      .cls-13 {
        fill: #e7e7e7;
      }

      .cls-14 {
        fill: #c5c5c5;
      }

      .cls-15 {
        fill: #e1e1e1;
      }

      .cls-16 {
        fill: #c2c2c2;
      }

      .cls-17 {
        fill: #d3d3d3;
      }

      .cls-18 {
        fill: #d1d1d1;
      }

      .cls-19 {
        fill: #cacaca;
      }

      .cls-20 {
        fill: #e8e8e8;
      }
    </style>
  </defs>
  <path class="cls-3" d="M746.91,170.02v-1l-43.49-57.99L49.36,597.01l43.96,58.96,154.33-114.77,43.04,10.54c40.81,7.34,82.16,8.26,123.22,2.28,3.58.06,6.91-.61,10-2,10.04-1.74,20.07-3.74,30-6,2.57-1.17,5.24-2.17,8-3,8.11-1.9,15.24-5.16,23-7,1.77-.52,3.44-1.19,5-2,58.46-19.09,121.53-68.14,159.81-115.64,13.48-16.72,33.53-44.74,41.9-64.15.65-1.51,2.21-4.35,2.22-5.72.01-1.65-1.37-3.04-1.93-4.49-1.16-1.05-1.71-2.49-2-4-8.79-17.64-20.34-33.59-31-50-1.05-1.1-2.05-2.1-3-3-3.67-5.25-7.88-10.12-12-15l-3-3c-.37-.42-.45-1.59-1.02-2.22-1.33-1.5-10.69-9.63-9.96-10.72l116.98-86.06ZM607.91,369.02c-.58,1.6-1.63,2.97-3,4-62.12,80.45-157.95,126.68-260.54,122.04-10.17-.46-20.31-2.44-30.46-3.05l28.72-21.78c31.88,1.03,64.84-3.05,93.28-18.21l4-2c1.12-.61,2.52-2.13,4-3,1.88-.6,3.66-1.51,5-3,19.3-12.3,35.1-27.22,48-46,1.24-.45,1.9-1.45,2-3,6.72-10.22,11.29-18.64,16-30l2-5c.38-1.41.7-2.52,1-4l2-5c1.08-5.35,2.54-10.87,4.55-15.95l53.42-39.65,3.6.54c5.87,7.24,12.51,13.18,17.43,21.06,1.24.59,2.24,1.59,3,3,6.8,9.33,14.81,17.94,19.99,28.5-3.77,7.43-9.09,13.87-13.99,20.5Z"/>
  <path class="cls-3" d="M74.91,272.02c2.75-4.4,5.69-6.13,8.98-9.8,90.49-100.71,228.87-145.2,362.42-113.1,5.73,1.38,56.59,16.4,56.59,19.4l-143.5,107.49c-2.44.95-1.24-4.44-1.71-6.26-4.23-16.18-18.61-34.8-34.77-40.73l-4-2c-12.74-3.89-22.47-5.37-36-3-1.72,1.18-3.72,1.84-6,2-1.06.47-2.12.63-3,1-1.53.26-3,.74-4,2-14.64,7.2-22.88,15.32-30,30-1.25,1-1.73,2.47-2,4-.37.94-.52,1.93-1,3-.15,2.27-.82,4.27-2,6-1.43,8.19-1.48,18.8,0,27,1.18,1.72,1.85,3.72,2,6,.47,1.05.63,2.2,1,3,.26,1.53.75,3,2,4,.35.72.63,1.29,1,2,.25,1.54.77,2.97,2,4,4.28,7.84,12.76,17.23,21,21,1.44.34,2.44,1.01,3,2,.24.35,1.94.82,1.9,1.48-.2,3.35-48.2,34.48-53.42,40.55l-2.49.97c-.48-1.22-1.14-2.22-2-3-18.27-38.81-24.55-75.68-14.73-118.23,1.15-4.98,3.69-10.65,4.72-15.77-1.31-1.39-19.38,11.05-21.77,12.74-23.16,16.41-44.51,37.82-62.22,60.25-1.15.52-1.82,1.52-2,3-.72.77-2.23,2.29-3,3-.89,1.2-1.89,2.2-3,3-.38.84-.49,1.95-1,3-1.16.54-1.82,1.54-2,3-1.21,1.64-4.82,4.94-5.9,6.83-.69,1.21-3.1,5.8-3.08,6.67.08,2.77,7.13,10.78,8.97,13.5.1,1.55.77,2.55,2,3,14.93,21.49,32.89,40.62,52.99,57.51l-50.68,38.35c-22.76-19.23-42.31-42.44-59.31-66.87-.54-1.64-1.67-2.93-3-4-3.77-5.59-8.62-13.18-12-19-.31-1.51-.74-3.01-2-4-1.51-2.69-9.74-17.25-9.82-18.67-.06-1.04,8.49-15.46,9.82-18.33l2-3c6.2-8.75,20.57-28.68,25-37,.33-1.44,1-2.44,2-3,3.05-3.83,6.17-7.97,9-12,1.04-1.08,2.04-2.08,3-3Z"/>
  <path class="cls-11" d="M423.91,552.02c-2.31,3.02-6.63,1.82-10,2,2.82-.41,6.71-1.43,10-2Z"/>
  <path class="cls-10" d="M461.91,543.02c-1.77,2.12-5.32,2.39-8,3,1.26-2.78,5.38-2.39,8-3Z"/>
  <path class="cls-6" d="M234.91,272.02c.54-3.08.83-3.37,2-6,.08,2.16.59,5.17-2,6Z"/>
  <path class="cls-1" d="M282.91,224.02c-.83,2.59-3.84,2.08-6,2,2.63-1.17,2.91-1.46,6-2Z"/>
  <path class="cls-4" d="M236.91,305.02c-1.18-2.64-1.45-2.93-2-6,2.59.83,2.08,3.84,2,6Z"/>
  <path class="cls-4" d="M489.91,534.02c-.93,2.73-3.29,1.59-5,2,1.1-2.19,3.47-1.5,5-2Z"/>
  <path class="cls-7" d="M322.91,229.02c-1.22-.45-3.46.46-4-2,1.4.43,3.25-.36,4,2Z"/>
  <path class="cls-15" d="M237.91,263.02c-.14-1.77.15-3.47,2-4-.47.96-1.91,3.77-2,4Z"/>
  <path class="cls-19" d="M74.91,272.02c-.66,1.05.01,3.31-3,3,.93-1.33.42-3.65,3-3Z"/>
  <path class="cls-17" d="M655.91,287.02c2.5-.62,2.06,1.55,3,3-2.99.37-2.36-2.09-3-3Z"/>
  <path class="cls-4" d="M239.91,312.02c-1.85-.53-2.14-2.23-2-4,.45.97,1.41,2.79,2,4Z"/>
  <path class="cls-5" d="M242.91,318.02c-1.8-.68-2.19-2.2-2-4,.6,1.14,1.42,2.93,2,4Z"/>
  <path class="cls-15" d="M273.91,227.02c-.35.15-3.04,1.53-4,2,.53-1.85,2.23-2.14,4-2Z"/>
  <path class="cls-20" d="M50.91,394.02c-.83-1.2-1.85-2.29-3-4,1.73.76,2.93,2.03,3,4Z"/>
  <path class="cls-5" d="M35.91,371.02c-.98-1.69-1.41-2.95-2-4,1.84.52,2.17,2.26,2,4Z"/>
  <path class="cls-14" d="M691.91,344.02c-1.84-.52-2.17-2.26-2-4,.73,1.47,1.06,1.58,2,4Z"/>
  <path class="cls-13" d="M263.91,339.02c.49.22,2.11-.47,2.81.19.51.48.04,1.6.19,1.81-1.46-.01-2.57-.57-3-2Z"/>
  <path class="cls-2" d="M107.91,365.02c-2.36.43-2.26-.93-2-3,.61.9,1.4,2.13,2,3Z"/>
  <path class="cls-4" d="M107.91,332.02c-1,2.05-1.02,1.68-2,3-.04-2.37-.67-3.47,2-3Z"/>
  <path class="cls-9" d="M35.91,327.02c-.01,1.46-.57,2.57-2,3,1.82-3.92,1.28-1.98,2-3Z"/>
  <path class="cls-12" d="M210.91,381.02c2.67-.47,2.04.63,2,3-1.96-.24-1.53-2.01-2-3Z"/>
  <path class="cls-8" d="M111.91,326.02c-.73,1.7-.74,3.55-3,3,1.86-4.1,2.34-2.38,3-3Z"/>
  <path class="cls-10" d="M62.91,287.02c.02,1.48-.61,2.49-2,3,.23-.44-.47-2.12.19-2.82.45-.48,1.71-.05,1.81-.18Z"/>
  <path class="cls-12" d="M643.91,272.02l-3-3c.46.52,1.54,1.27,3,3Z"/>
  <path class="cls-15" d="M116.91,320.02c-.53.67-.47,1.36-2,3-.26-2.07-.36-3.43,2-3Z"/>
  <path class="cls-16" d="M448.91,444.02c-.97,1.95-2.91,2.77-5,3,1.41-.83,3.6-2.11,5-3Z"/>
  <path class="cls-9" d="M514.91,365.02c-.04-1.89.28-3.92,2-5-.9,3.35-1.2,3.08-2,5Z"/>
  <path class="cls-1" d="M517.91,356.02c.37-1.83-.07-3.82,2-5-.36,1.76.72,4.23-2,5Z"/>
  <path class="cls-15" d="M604.91,373.02c.87-1.13,2.14-2.83,3-4-.18,1.95-1.25,3.23-3,4Z"/>
  <path class="cls-18" d="M498.91,395.02c.26,2.07.36,3.43-2,3,.59-.85,1.44-2.14,2-3Z"/>
  <path class="cls-9" d="M601.91,320.02c-1.53-.61-2.18-1.69-3-3,3-.39,2.38,2.15,3,3Z"/>
  <path class="cls-9" d="M439.91,450.02l-4,2c1.37-.73,3.03-1.47,4-2Z"/>
</svg>