<?xml version="1.0" encoding="UTF-8"?>
<svg id="Layer_1" data-name="Layer 1" xmlns="http://www.w3.org/2000/svg" viewBox="0 0 767 767">
  <defs>
    <style>
      .cls-1 {
        fill: #a9a9a9;
      }
    </style>
  </defs>
  <path class="cls-1" d="M716.45,379c-1.17-1.05-1.71-2.49-2-4-8.84-17.73-20.29-33.51-31-50-1.05-1.1-2.05-2.1-3-3-3.68-5.26-7.92-10.07-12-15l-2.73-2.73s-.07-.07-.11-.1l-.16-.17c-28.59-33.72-74.06-72.59-115-90l-5-3c-152.62-70.46-325.17-38.29-437.02,86.2-3.3,3.67-6.23,5.4-8.98,9.8-.96.92-1.96,1.92-3,3-2.83,4.03-5.95,8.17-9,12-1.01.56-1.67,1.56-2,3-4.44,8.32-18.8,28.25-25,37l-2,3c-1.34,2.87-9.88,17.29-9.82,18.33.08,1.42,8.3,15.98,9.82,18.67,1.26.99,1.69,2.49,2,4,3.38,5.82,8.22,13.41,12,19,1.32,1.07,2.46,2.36,3,4,40.37,57.99,109.49,118.48,178,140,1.56.81,3.22,1.47,5,2,4.49,1.21,8.25,2.91,13,4,1.53.84,3.2,1.5,5,2,6.99,1.45,13.7,4.29,20.6,5.9,46.17,10.75,94.35,12.96,141.4,6.1.35.01.7,0,1.05-.01.02-.01.04-.01.07,0,3.15-.08,6.12-.75,8.88-1.99,22.18-3.88,40.16-11.05,61-16,1.77-.52,3.44-1.19,5-2,58.45-19.09,121.53-68.14,159.81-115.64,13.54-16.81,33.47-44.62,41.89-64.15.65-1.51,2.22-4.35,2.22-5.72.01-1.65-1.36-3.04-1.92-4.49ZM358.97,370.85c-14.83,9.92-34.62,13.94-51.52,11.15-.91-2.97-3.98-1.62-6-2-4.05-.76-6.53-2.11-10-4,.46-2.67-.64-2.04-3-2-10.21-6.37-14.68-10.78-21-21,.17-1.74-.17-3.48-2-4-.36-.69-.67-1.3-1-2,.17-1.74-.17-3.48-2-4-.35-.93-.71-2.05-1-3,.07-2.16.59-5.16-2-6-1.49-8.13-1.44-18.87,0-27,2.59-.84,2.07-3.84,2-6,.29-.95.66-2.06,1-3,1.85-.53,2.14-2.23,2-4,.37-.79.42-1.93,1-3,2.67.47,2.04-.63,2-3,5.92-9.26,11.77-14.99,21-21,2.36.04,3.46.67,3-2,.67-.36,1.98-.51,3-1,1.73.13,3.48-.16,4-2,.93-.34,2.04-.7,3-1,2.16.08,5.16.59,6-2,12.79-2.27,23.92-1.12,36,3,.52,1.84,2.25,2.17,4,2,.73.33,1.3.64,2,1,.52,1.84,2.25,2.17,4,2,11.5,7.11,24.33,20.52,27,34,.39,1.99-.99,5.1,2,6,1.52,8.88,1.46,18.15,0,27-2.98.91-1.63,3.98-2,6-.2,1.08-.44,2.14-.72,3.18-4.25,11.05-11.5,20.61-20.76,27.67ZM632.45,404c-.87,1.17-2.13,2.87-3,4-90.41,117.09-246.21,155.64-381.24,90.74-5.39-2.59-10.34-6.27-15.76-8.74-.44-1.43-1.54-1.99-3-2-16.62-12.08-32.5-20.09-49.01-34.49-19.96-17.39-31.46-34.36-47.99-53.51.3-2.03-1.3-2.21-2-3-1.93-2.15-8.91-11.28-8.97-13.5-.03-.87,2.38-5.46,3.07-6.67,1.07-1.9,4.69-5.19,5.9-6.83.97-1.32,1-.94,2-3,.51-1.06.62-2.12,1-3,2.58.7,2.04-1.77,3-3,1.22-1.57,1.78-1.84,3-3,.89-.85,2.17-.98,2-3,3.72-3.45,9.18-12.06,13.39-16.62,14.43-15.62,31.71-31.5,48.83-43.63,2.39-1.7,20.46-14.13,21.77-12.75-1.02,5.13-3.57,10.79-4.72,15.77-6.73,29.15-5.81,61.84,3.01,90.44,2.97,9.63,8.11,18.46,11.72,27.79.46,1.2.13,2.57,2,3,5.63,13.39,23.64,34.26,34.8,43.98,4.52,3.94,21.38,17.3,26.2,19.02.52,1.39,1.52,1.99,3,2,.51.65,12.96,6.11,15,7,.53,1.85,2.22,2.14,4,2,38.47,15.41,69.35,14.01,109,6,1.76-.36,4.22.72,5-2,7.95-1.82,18.79-6.16,26-10l1.61-.81.8-.39c.09-.04.17-.09.26-.13.5-.24.97-.47,1.33-.67,1.11-.61,2.52-2.13,4-3,2.08-.23,4.03-1.05,5-3,19.29-12.3,35.09-27.22,48-46,2.35.43,2.25-.93,2-3,6.72-10.23,11.29-18.64,16-30,.05-.12.1-.23.14-.34.69-1.56,1.02-1.52,1.86-4.66.38-1.41.69-2.52,1-4,2.71-.77,1.64-3.24,2-5,1.34-6.69,3.01-11.99,4-19,3.45-1.76,1.74-7.49,2-11,.99-13.42.97-23.59,0-37-.29-3.93,1.3-9.18-2-12-.41-2.77-.7-5.45-1.3-8.21-.91-4.22-4.5-11.68-4.74-15.27-.19-3.02,3.49-.7,4.92.1,28.46,15.92,55.59,43.26,76.12,68.38l3,3c7.21,9.01,14.46,18.19,19.99,28.5-3.77,7.43-9.09,13.87-13.99,20.5Z"/>
</svg>